<svg width="49" height="47" viewBox="0 0 49 47" fill="none" xmlns="http://www.w3.org/2000/svg">
<path d="M23.6877 22.9211V1" stroke="#27A9E1" stroke-width="1.81481" stroke-linecap="round" stroke-linejoin="round"/>
<path d="M18 5.05948L24.125 10.7427L30.25 5.05948" stroke="#27A9E1" stroke-width="1.81481" stroke-linecap="round" stroke-linejoin="round"/>
<path d="M23.6877 22.9211V44.8421" stroke="#27A9E1" stroke-width="1.81481" stroke-linecap="round" stroke-linejoin="round"/>
<path d="M18 40.7826L24.125 35.0994L30.25 40.7826" stroke="#27A9E1" stroke-width="1.81481" stroke-linecap="round" stroke-linejoin="round"/>
<path d="M24.091 23.327L4.00015 12.3121" stroke="#27A9E1" stroke-width="1.81481" stroke-linecap="round" stroke-linejoin="round"/>
<path d="M4.48932 19.5184L13.1326 17.319L10.8164 9.11163" stroke="#27A9E1" stroke-width="1.81481" stroke-linecap="round" stroke-linejoin="round"/>
<path d="M24.0909 23.327L44.1818 34.3419" stroke="#27A9E1" stroke-width="1.81481" stroke-linecap="round" stroke-linejoin="round"/>
<path d="M37.3658 37.5424L35.0505 29.335L43.6929 27.1356" stroke="#27A9E1" stroke-width="1.81481" stroke-linecap="round" stroke-linejoin="round"/>
<path d="M24.0909 23.327L44.1818 12.3121" stroke="#27A9E1" stroke-width="1.81481" stroke-linecap="round" stroke-linejoin="round"/>
<path d="M43.6929 19.5184L35.0505 17.319L37.3658 9.11163" stroke="#27A9E1" stroke-width="1.81481" stroke-linecap="round" stroke-linejoin="round"/>
<path d="M24.091 23.327L4.00015 34.3419" stroke="#27A9E1" stroke-width="1.81481" stroke-linecap="round" stroke-linejoin="round"/>
<path d="M10.8164 37.5424L13.1326 29.335L4.48932 27.1356" stroke="#27A9E1" stroke-width="1.81481" stroke-linecap="round" stroke-linejoin="round"/>
</svg>
