<svg width="49" height="47" viewBox="0 0 49 47" fill="none" xmlns="http://www.w3.org/2000/svg">
<path d="M10.4788 43.3622V40.7345C10.4788 40.0894 11.0019 39.5666 11.6472 39.5666H26.5446C27.1899 39.5666 27.713 40.0894 27.713 40.7345V43.3622C27.713 44.0072 27.1899 44.53 26.5446 44.53H11.6472C11.0019 44.53 10.4788 44.0072 10.4788 43.3622Z" stroke="#27A9E1" stroke-width="1.8"/>
<path d="M21.1892 35.1871V32.5594C21.1892 31.9143 21.7123 31.3915 22.3576 31.3915H37.255C37.9004 31.3915 38.4234 31.9143 38.4234 32.5594V35.1871C38.4234 35.8321 37.9004 36.355 37.255 36.355H22.3576C21.7123 36.355 21.1892 35.8321 21.1892 35.1871Z" stroke="#27A9E1" stroke-width="1.8"/>
<path d="M10.4788 27.012V24.3842C10.4788 23.7392 11.0019 23.2164 11.6472 23.2164H26.5446C27.1899 23.2164 27.713 23.7392 27.713 24.3842V27.012C27.713 27.657 27.1899 28.1798 26.5446 28.1798H11.6472C11.0019 28.1798 10.4788 27.657 10.4788 27.012Z" stroke="#27A9E1" stroke-width="1.8"/>
<path d="M6 19.3234V13.2894C6 12.6444 6.52312 12.1215 7.16842 12.1215H41.8316C42.4769 12.1215 43 12.6444 43 13.2894V19.3234C43 19.9684 42.4769 20.4913 41.8316 20.4913H7.16842C6.52312 20.4913 6 19.9684 6 19.3234Z" stroke="#27A9E1" stroke-width="1.8" stroke-linejoin="round"/>
<path d="M14.7719 8.25836L16.3947 5.14403C16.5288 4.88658 16.7951 4.7251 17.0855 4.7251H32.0909C32.3907 4.7251 32.6638 4.89703 32.7933 5.16723L34.2863 8.28156C34.534 8.79838 34.1572 9.39658 33.5839 9.39658H15.4627C14.8781 9.39658 14.5018 8.77668 14.7719 8.25836Z" stroke="#27A9E1" stroke-width="1.8"/>
<path d="M29.9523 43.2649V40.7345C29.9523 40.0894 30.4753 39.5666 31.1207 39.5666H37.3523C37.9976 39.5666 38.5207 40.0894 38.5207 40.7345V43.2649C38.5207 43.9099 37.9976 44.4327 37.3523 44.4327H31.1207C30.4753 44.4327 29.9523 43.9099 29.9523 43.2649Z" stroke="#27A9E1" stroke-width="1.8"/>
<path d="M10.6735 35.2844V32.754C10.6735 32.109 11.1966 31.5862 11.8419 31.5862H18.0735C18.7188 31.5862 19.2419 32.109 19.2419 32.754V35.2844C19.2419 35.9295 18.7188 36.4523 18.0735 36.4523H11.8419C11.1966 36.4523 10.6735 35.9295 10.6735 35.2844Z" stroke="#27A9E1" stroke-width="1.8"/>
<path d="M29.9523 27.1092V24.5788C29.9523 23.9338 30.4753 23.4109 31.1207 23.4109H37.3523C37.9976 23.4109 38.5207 23.9338 38.5207 24.5788V27.1092C38.5207 27.7543 37.9976 28.2771 37.3523 28.2771H31.1207C30.4753 28.2771 29.9523 27.7543 29.9523 27.1092Z" stroke="#27A9E1" stroke-width="1.8"/>
<path d="M6.97345 12.1216L12.6071 2.57456C12.8172 2.21851 13.1999 2 13.6135 2H35.2936C35.7043 2 36.0847 2.2154 36.2958 2.56739L42.0261 12.1216" stroke="#27A9E1" stroke-width="1.8"/>
<path d="M22 14.805H9.76543C9.3427 14.805 9 15.0878 9 15.4366V17.1734C9 17.5222 9.3427 17.805 9.76543 17.805H39.2346C39.6573 17.805 40 17.5222 40 17.1734V15.4366C40 15.0878 39.6573 14.805 39.2346 14.805H27" stroke="#27A9E1" stroke-width="1.8"/>
</svg>
