<svg width="49" height="47" viewBox="0 0 49 47" fill="none" xmlns="http://www.w3.org/2000/svg">
<path d="M12.508 4.7265C12.0876 4.99162 11.9617 5.54739 12.2268 5.96783C12.4919 6.38828 13.0477 6.51419 13.4681 6.24906L12.508 4.7265ZM27.4625 3.31758C27.954 3.39167 28.4125 3.0533 28.4866 2.56179C28.5607 2.07029 28.2223 1.61178 27.7308 1.53769L27.4625 3.31758ZM46.7114 23.6676C46.713 23.1706 46.3114 22.7663 45.8143 22.7647C45.3173 22.7631 44.913 23.1647 44.9114 23.6617L46.7114 23.6676ZM40.5617 37.6367L41.241 38.2271L41.241 38.2271L40.5617 37.6367ZM3.89001 29.7024L4.75259 29.4456L3.89001 29.7024ZM5.70615 15.1793C5.91013 14.726 5.70803 14.1932 5.25476 13.9893C4.80148 13.7853 4.26867 13.9874 4.0647 14.4407L5.70615 15.1793ZM13.4681 6.24906C17.6301 3.62456 22.5971 2.58411 27.4625 3.31758L27.7308 1.53769C22.4383 0.739833 17.0354 1.87162 12.508 4.7265L13.4681 6.24906ZM44.9114 23.6617C44.8952 28.5821 43.1103 33.3326 39.8825 37.0462L41.241 38.2271C44.7522 34.1874 46.6938 29.0199 46.7114 23.6676L44.9114 23.6617ZM39.8825 37.0462C36.6546 40.7599 32.1991 43.1891 27.3289 43.8905L27.5855 45.6721C32.8832 44.9092 37.7298 42.2667 41.241 38.2271L39.8825 37.0462ZM27.3289 43.8905C22.4588 44.592 17.4988 43.5188 13.3542 40.867L12.3841 42.3832C16.8925 45.2678 22.2879 46.4351 27.5855 45.6721L27.3289 43.8905ZM13.3542 40.867C9.20955 38.2151 6.15663 34.1614 4.75259 29.4456L3.02743 29.9592C4.55472 35.089 7.87562 39.4986 12.3841 42.3832L13.3542 40.867ZM4.75259 29.4456C3.34854 24.7298 3.68699 19.6663 5.70615 15.1793L4.0647 14.4407C1.86829 19.3215 1.50013 24.8294 3.02743 29.9592L4.75259 29.4456Z" fill="#27A9E1"/>
<path d="M35.6198 3.93995C35.1874 3.69468 34.6381 3.84632 34.3929 4.27864C34.1476 4.71097 34.2992 5.26027 34.7315 5.50554L35.6198 3.93995ZM43.9276 16.4539C44.0946 16.9221 44.6094 17.1663 45.0776 16.9994C45.5458 16.8325 45.79 16.3176 45.6231 15.8494L43.9276 16.4539ZM34.7315 5.50554C39.0112 7.93351 42.2751 11.8194 43.9276 16.4539L45.6231 15.8494C43.8255 10.808 40.2751 6.58104 35.6198 3.93995L34.7315 5.50554Z" fill="#27A9E1"/>
<path d="M14.079 7.19291C13.6586 7.45804 13.5327 8.0138 13.7978 8.43424C14.0629 8.85469 14.6187 8.9806 15.0391 8.71547L14.079 7.19291ZM27.0291 5.34202L26.8949 6.23196L26.8949 6.23196L27.0291 5.34202ZM38.1749 11.5143L38.858 10.9284L38.858 10.9284L38.1749 11.5143ZM38.0962 35.3968L37.417 34.8064L37.417 34.8064L38.0962 35.3968ZM26.9101 41.4956L27.0384 42.3864L27.0384 42.3864L26.9101 41.4956ZM14.4575 38.8014L13.9725 39.5595L13.9725 39.5595L14.4575 38.8014ZM6.79285 28.624L5.93027 28.8809L5.93027 28.8809L6.79285 28.624ZM8.46328 16.2811C8.66726 15.8278 8.46516 15.295 8.01188 15.091C7.55861 14.887 7.0258 15.0891 6.82182 15.5424L8.46328 16.2811ZM15.0391 8.71547C18.5651 6.49203 22.773 5.61057 26.8949 6.23196L27.1633 4.45207C22.6143 3.7663 17.9704 4.73909 14.079 7.19291L15.0391 8.71547ZM26.8949 6.23196C31.0169 6.85335 34.7779 8.93615 37.4917 12.1002L38.858 10.9284C35.863 7.43645 31.7123 5.13784 27.1633 4.45207L26.8949 6.23196ZM37.4917 12.1002C40.2055 15.2643 41.6911 19.2988 41.6774 23.4672L43.4774 23.4732C43.4925 18.8728 41.853 14.4203 38.858 10.9284L37.4917 12.1002ZM41.6774 23.4672C41.6637 27.6357 40.1515 31.6602 37.417 34.8064L38.7755 35.9872C41.7934 32.5151 43.4622 28.0735 43.4774 23.4732L41.6774 23.4672ZM37.417 34.8064C34.6824 37.9526 30.9077 40.0105 26.7818 40.6048L27.0384 42.3864C31.5918 41.7306 35.7576 39.4594 38.7755 35.9872L37.417 34.8064ZM26.7818 40.6048C22.6559 41.199 18.4538 40.2899 14.9426 38.0433L13.9725 39.5595C17.8476 42.0389 22.485 43.0422 27.0384 42.3864L26.7818 40.6048ZM14.9426 38.0433C11.4313 35.7967 8.84492 32.3624 7.65543 28.3672L5.93027 28.8809C7.24301 33.29 10.0974 37.0801 13.9725 39.5595L14.9426 38.0433ZM7.65543 28.3672C6.46595 24.3721 6.75267 20.0824 8.46328 16.2811L6.82182 15.5424C4.93397 19.7376 4.61754 24.4717 5.93027 28.8809L7.65543 28.3672Z" fill="#27A9E1"/>
<mask id="path-4-inside-1_1152_4628" fill="white">
<path d="M29.5226 23.5924C29.5226 26.4194 27.2309 28.7112 24.4039 28.7112C21.5768 28.7112 19.2851 26.4194 19.2851 23.5924C19.2851 20.7654 21.5768 18.4736 24.4039 18.4736C27.2309 18.4736 29.5226 20.7654 29.5226 23.5924Z"/>
</mask>
<path d="M27.7226 23.5924C27.7226 25.4253 26.2368 26.9112 24.4039 26.9112V30.5112C28.225 30.5112 31.3226 27.4135 31.3226 23.5924H27.7226ZM24.4039 26.9112C22.5709 26.9112 21.0851 25.4253 21.0851 23.5924H17.4851C17.4851 27.4135 20.5827 30.5112 24.4039 30.5112V26.9112ZM21.0851 23.5924C21.0851 21.7595 22.5709 20.2736 24.4039 20.2736V16.6736C20.5827 16.6736 17.4851 19.7713 17.4851 23.5924H21.0851ZM24.4039 20.2736C26.2368 20.2736 27.7226 21.7595 27.7226 23.5924H31.3226C31.3226 19.7713 28.225 16.6736 24.4039 16.6736V20.2736Z" fill="#27A9E1" mask="url(#path-4-inside-1_1152_4628)"/>
<path d="M27.0486 22.3077C26.9945 22.0369 26.7311 21.8613 26.4603 21.9155C26.1895 21.9696 26.0139 22.233 26.068 22.5038L27.0486 22.3077ZM23.3831 25.17C23.1107 25.1246 22.8531 25.3086 22.8077 25.581C22.7623 25.8533 22.9463 26.111 23.2187 26.1564L23.3831 25.17ZM26.068 22.5038C26.29 23.6136 26.1435 24.3426 25.7795 24.747C25.4261 25.1396 24.7142 25.3918 23.3831 25.17L23.2187 26.1564C24.6797 26.3999 25.8292 26.1867 26.5228 25.416C27.2059 24.657 27.292 23.5246 27.0486 22.3077L26.068 22.5038Z" fill="#27A9E1"/>
<mask id="path-7-inside-2_1152_4628" fill="white">
<path d="M18.1201 11.1701C18.6961 9.54516 20.0579 8.55427 21.7785 8.44552C23.1597 8.35821 24.5769 8.4755 25.6277 9.37619C28.8851 12.1682 26.9782 20.2132 26.9782 20.2132L21.7784 20.0385C21.7784 20.0385 22.4271 16.6579 21.7785 14.9603C21.0534 13.0623 17.4413 13.0852 18.1201 11.1701Z"/>
</mask>
<path d="M18.1201 11.1701L19.8167 11.7715L19.8167 11.7715L18.1201 11.1701ZM25.6277 9.37619L26.7991 8.00953L26.7991 8.00953L25.6277 9.37619ZM26.9782 20.2132L26.9177 22.0122L28.3899 22.0616L28.7296 20.6284L26.9782 20.2132ZM21.7785 14.9603L20.0971 15.6027L21.7785 14.9603ZM21.7784 20.0385L20.0107 19.6993L19.6139 21.7668L21.718 21.8375L21.7784 20.0385ZM21.7785 8.44552L21.665 6.6491L21.7785 8.44552ZM24.4563 10.7429C24.8788 11.105 25.2342 11.7294 25.4641 12.6733C25.6913 13.6063 25.7574 14.6978 25.7252 15.7887C25.6934 16.8688 25.5676 17.8807 25.4479 18.6277C25.3884 18.999 25.3312 19.2995 25.2897 19.5038C25.269 19.6059 25.2523 19.6836 25.2412 19.7338C25.2356 19.7588 25.2315 19.777 25.229 19.7879C25.2278 19.7933 25.2269 19.7969 25.2265 19.7986C25.2264 19.7994 25.2263 19.7998 25.2263 19.7997C25.2263 19.7997 25.2263 19.7995 25.2264 19.7992C25.2264 19.7991 25.2265 19.7988 25.2265 19.7987C25.2266 19.7984 25.2267 19.798 26.9782 20.2132C28.7296 20.6284 28.7297 20.6279 28.7298 20.6275C28.7299 20.6273 28.73 20.6268 28.7301 20.6264C28.7303 20.6256 28.7305 20.6247 28.7307 20.6237C28.7312 20.6217 28.7318 20.6191 28.7325 20.6161C28.7339 20.6101 28.7358 20.6021 28.738 20.5922C28.7425 20.5724 28.7487 20.5451 28.7564 20.5106C28.7716 20.4415 28.7927 20.3437 28.8177 20.2203C28.8678 19.9738 28.9342 19.624 29.0025 19.1974C29.1386 18.3487 29.2859 17.1749 29.3237 15.8947C29.3611 14.6253 29.2932 13.1822 28.9618 11.8215C28.6331 10.4716 28.0053 9.04339 26.7991 8.00953L24.4563 10.7429ZM23.46 14.3179C23.0945 13.3613 22.4011 12.748 21.8231 12.3519C21.2733 11.9751 20.6175 11.6634 20.251 11.4734C19.764 11.2211 19.6648 11.1257 19.6699 11.1317C19.7046 11.1721 19.7869 11.2884 19.8214 11.4707C19.8374 11.5557 19.8381 11.6306 19.8323 11.6883C19.8266 11.744 19.8161 11.7732 19.8167 11.7715L16.4235 10.5688C16.2529 11.0501 16.1792 11.5847 16.284 12.1392C16.3889 12.6942 16.6477 13.1377 16.937 13.475C17.4511 14.0746 18.1729 14.4512 18.5947 14.6698C19.137 14.9508 19.4778 15.1089 19.788 15.3215C19.9234 15.4143 20.0034 15.4865 20.0494 15.5374C20.0712 15.5615 20.0831 15.5785 20.0892 15.5881C20.0949 15.5972 20.0967 15.6016 20.0971 15.6027L23.46 14.3179ZM27.0386 18.4142L21.8388 18.2395L21.718 21.8375L26.9177 22.0122L27.0386 18.4142ZM21.7784 20.0385C23.5462 20.3777 23.5462 20.3774 23.5463 20.3772C23.5463 20.3771 23.5463 20.3768 23.5464 20.3766C23.5464 20.3761 23.5465 20.3757 23.5466 20.3751C23.5468 20.3741 23.5471 20.3728 23.5474 20.3713C23.5479 20.3684 23.5486 20.3646 23.5495 20.3601C23.5512 20.3509 23.5535 20.3386 23.5563 20.3232C23.5619 20.2923 23.5696 20.2492 23.579 20.195C23.5976 20.0868 23.6227 19.9339 23.6503 19.7465C23.7054 19.3734 23.7718 18.8546 23.8164 18.2736C23.8977 17.2142 23.942 15.5796 23.46 14.3179L20.0971 15.6027C20.2636 16.0386 20.3079 16.943 20.2269 17.9983C20.1904 18.4747 20.1352 18.9072 20.0889 19.221C20.0659 19.377 20.0454 19.5015 20.0311 19.5848C20.0239 19.6264 20.0183 19.6575 20.0148 19.677C20.013 19.6868 20.0117 19.6936 20.011 19.6974C20.0106 19.6993 20.0104 19.7004 20.0104 19.7007C20.0103 19.7009 20.0104 19.7008 20.0104 19.7006C20.0104 19.7005 20.0105 19.7003 20.0105 19.7001C20.0105 19.7 20.0106 19.6998 20.0106 19.6997C20.0106 19.6995 20.0107 19.6993 21.7784 20.0385ZM19.8167 11.7715C20.1428 10.8515 20.8633 10.307 21.8921 10.2419L21.665 6.6491C19.2525 6.80159 17.2494 8.23884 16.4235 10.5688L19.8167 11.7715ZM21.8921 10.2419C23.1818 10.1604 23.9707 10.3266 24.4563 10.7429L26.7991 8.00953C25.1831 6.62436 23.1377 6.55601 21.665 6.6491L21.8921 10.2419Z" fill="#27A9E1" mask="url(#path-7-inside-2_1152_4628)"/>
<mask id="path-9-inside-3_1152_4628" fill="white">
<path d="M19.2917 36.8879C17.6773 37.4926 16.0425 37.0877 14.8521 35.8407C13.8965 34.8395 13.0744 33.6792 13.0877 32.2953C13.1289 28.0053 20.5142 24.2884 20.5142 24.2884L23.7263 28.3811C23.7263 28.3811 20.7211 30.0598 19.839 31.6486C18.8527 33.4249 21.1944 36.1752 19.2917 36.8879Z"/>
</mask>
<path d="M19.2917 36.8879L18.6604 35.2022L19.2917 36.8879ZM13.0877 32.2953L11.2877 32.278L11.2877 32.278L13.0877 32.2953ZM20.5142 24.2884L21.9301 23.177L21.0207 22.0183L19.7049 22.6805L20.5142 24.2884ZM19.839 31.6486L21.4127 32.5224L21.4127 32.5224L19.839 31.6486ZM23.7263 28.3811L24.6041 29.9525L26.442 28.9258L25.1423 27.2698L23.7263 28.3811ZM14.8521 35.8407L13.55 37.0835L14.8521 35.8407ZM14.8876 32.3126C14.8929 31.7561 15.1422 31.0823 15.7168 30.299C16.2848 29.5248 17.0778 28.7718 17.9335 28.0945C18.7808 27.4238 19.6363 26.8689 20.2851 26.48C20.6077 26.2866 20.8745 26.137 21.0576 26.0373C21.149 25.9875 21.2193 25.9503 21.2648 25.9265C21.2876 25.9146 21.3042 25.906 21.3141 25.901C21.319 25.8984 21.3223 25.8967 21.3239 25.896C21.3247 25.8956 21.325 25.8954 21.3249 25.8954C21.3249 25.8954 21.3247 25.8955 21.3245 25.8956C21.3244 25.8957 21.3241 25.8959 21.324 25.8959C21.3237 25.896 21.3234 25.8962 20.5142 24.2884C19.7049 22.6805 19.7046 22.6807 19.7041 22.6809C19.704 22.681 19.7035 22.6812 19.7032 22.6814C19.7024 22.6818 19.7016 22.6822 19.7007 22.6827C19.6988 22.6836 19.6965 22.6848 19.6937 22.6862C19.6882 22.689 19.6809 22.6927 19.6719 22.6973C19.6538 22.7066 19.6289 22.7195 19.5976 22.7358C19.5349 22.7686 19.4465 22.8154 19.3359 22.8756C19.115 22.996 18.8045 23.1702 18.434 23.3924C17.6968 23.8344 16.7034 24.4768 15.6992 25.2717C14.7035 26.0599 13.6424 27.0405 12.8141 28.1697C11.9923 29.2899 11.303 30.6895 11.2877 32.278L14.8876 32.3126ZM18.2653 30.7748C17.7682 31.6702 17.7449 32.5956 17.8136 33.2929C17.879 33.9563 18.0623 34.6588 18.1528 35.0616C18.273 35.5967 18.2638 35.7341 18.2651 35.7263C18.2738 35.6737 18.3097 35.5359 18.4271 35.3922C18.4818 35.3252 18.5388 35.2765 18.5867 35.2438C18.6329 35.2123 18.6621 35.2016 18.6604 35.2022L19.9231 38.5735C20.4014 38.3944 20.858 38.1068 21.2151 37.6698C21.5724 37.2324 21.7453 36.7489 21.8174 36.3104C21.9455 35.5311 21.7694 34.7362 21.6653 34.2727C21.5314 33.6768 21.4331 33.3141 21.3963 32.9399C21.3802 32.7766 21.384 32.6689 21.3934 32.6009C21.3978 32.5687 21.4031 32.5487 21.4066 32.5378C21.4098 32.5275 21.4121 32.5234 21.4127 32.5224L18.2653 30.7748ZM19.0982 25.3997L22.3103 29.4924L25.1423 27.2698L21.9301 23.177L19.0982 25.3997ZM23.7263 28.3811C22.8484 26.8096 22.8482 26.8098 22.848 26.8099C22.8479 26.8099 22.8476 26.8101 22.8475 26.8102C22.8471 26.8104 22.8467 26.8106 22.8462 26.8109C22.8452 26.8114 22.8441 26.8121 22.8428 26.8128C22.8402 26.8143 22.8369 26.8161 22.8328 26.8184C22.8247 26.823 22.8138 26.8292 22.8002 26.8369C22.773 26.8525 22.735 26.8743 22.6875 26.902C22.5927 26.9574 22.4595 27.0366 22.2982 27.136C21.9772 27.3339 21.5374 27.6169 21.064 27.9566C20.2007 28.5761 18.9209 29.594 18.2653 30.7748L21.4127 32.5224C21.6392 32.1144 22.303 31.4985 23.1629 30.8814C23.551 30.6029 23.9176 30.3669 24.1876 30.2004C24.3219 30.1176 24.4303 30.0532 24.5033 30.0106C24.5398 29.9893 24.5672 29.9735 24.5845 29.9637C24.5931 29.9587 24.5991 29.9553 24.6024 29.9534C24.6041 29.9525 24.6051 29.9519 24.6054 29.9518C24.6055 29.9517 24.6055 29.9517 24.6053 29.9518C24.6052 29.9519 24.605 29.952 24.6048 29.9521C24.6047 29.9522 24.6046 29.9523 24.6045 29.9523C24.6043 29.9524 24.6041 29.9525 23.7263 28.3811ZM18.6604 35.2022C17.7463 35.5446 16.8658 35.3434 16.1541 34.5978L13.55 37.0835C15.2191 38.8321 17.6082 39.4406 19.9231 38.5735L18.6604 35.2022ZM16.1541 34.5978C15.2618 33.663 14.8814 32.9521 14.8876 32.3126L11.2877 32.278C11.2673 34.4064 12.5311 36.016 13.55 37.0835L16.1541 34.5978Z" fill="#27A9E1" mask="url(#path-9-inside-3_1152_4628)"/>
<mask id="path-11-inside-4_1152_4628" fill="white">
<path d="M38.9522 24.6158C40.0504 25.9448 40.2008 27.6223 39.4101 29.1543C38.7753 30.3841 37.9466 31.5397 36.634 31.9784C32.565 33.3385 26.6429 27.5691 26.6429 27.5691L29.4643 23.1979C29.4643 23.1979 32.0313 25.4913 33.8209 25.8071C35.8218 26.1602 37.658 23.0496 38.9522 24.6158Z"/>
</mask>
<path d="M38.9522 24.6158L37.5646 25.7624L38.9522 24.6158ZM36.634 31.9784L37.2046 33.6856L37.2046 33.6856L36.634 31.9784ZM26.6429 27.5691L25.1305 26.593L24.3317 27.8306L25.3868 28.8585L26.6429 27.5691ZM33.8209 25.8071L34.1337 24.0345L33.8209 25.8071ZM29.4643 23.1979L30.6635 21.8556L29.0936 20.453L27.952 22.2218L29.4643 23.1979ZM39.4101 29.1543L37.8106 28.3287L39.4101 29.1543ZM36.0633 30.2713C35.5356 30.4477 34.8173 30.4318 33.8894 30.144C32.9723 29.8596 32.0018 29.3555 31.0825 28.7675C30.1722 28.1852 29.3686 27.5574 28.7893 27.0709C28.5014 26.8291 28.2729 26.6257 28.1189 26.4851C28.042 26.4149 27.984 26.3606 27.9466 26.3253C27.9279 26.3076 27.9145 26.2948 27.9064 26.2871C27.9024 26.2832 27.8998 26.2806 27.8985 26.2794C27.8979 26.2788 27.8976 26.2785 27.8977 26.2786C27.8977 26.2786 27.8978 26.2788 27.898 26.279C27.8981 26.2791 27.8983 26.2793 27.8984 26.2793C27.8986 26.2796 27.8989 26.2798 26.6429 27.5691C25.3868 28.8585 25.3871 28.8588 25.3875 28.8591C25.3876 28.8592 25.388 28.8596 25.3882 28.8599C25.3888 28.8604 25.3895 28.8611 25.3902 28.8618C25.3917 28.8633 25.3936 28.8651 25.3958 28.8672C25.4003 28.8715 25.4062 28.8772 25.4135 28.8842C25.4281 28.8983 25.4484 28.9176 25.4741 28.9419C25.5255 28.9905 25.5987 29.0588 25.6916 29.1437C25.8774 29.3133 26.1434 29.55 26.4742 29.8278C27.1325 30.3806 28.0638 31.1101 29.1427 31.8002C30.2125 32.4845 31.4855 33.1677 32.8231 33.5825C34.1501 33.994 35.6979 34.1892 37.2046 33.6856L36.0633 30.2713ZM33.5081 27.5797C34.5166 27.7577 35.399 27.4779 36.0358 27.1855C36.6416 26.9074 37.2459 26.505 37.5972 26.2881C38.0639 26 38.1967 25.9638 38.189 25.9651C38.1364 25.9741 37.9944 25.985 37.8203 25.9209C37.7391 25.8911 37.6745 25.8531 37.628 25.8185C37.5831 25.7851 37.5635 25.761 37.5646 25.7624L40.3398 23.4693C40.0145 23.0756 39.5937 22.7377 39.0641 22.5427C38.5341 22.3475 38.0206 22.3417 37.5827 22.4166C36.8042 22.5496 36.1102 22.9753 35.7059 23.2249C35.1863 23.5458 34.8755 23.757 34.5338 23.9138C34.3846 23.9823 34.2815 24.0138 34.2142 24.0271C34.1823 24.0334 34.1617 24.035 34.1503 24.0353C34.1395 24.0355 34.1348 24.0347 34.1337 24.0345L33.5081 27.5797ZM28.1552 28.5453L30.9766 24.1741L27.952 22.2218L25.1305 26.593L28.1552 28.5453ZM29.4643 23.1979C28.265 24.5402 28.2652 24.5404 28.2654 24.5406C28.2655 24.5407 28.2657 24.5409 28.2659 24.541C28.2662 24.5413 28.2666 24.5416 28.267 24.542C28.2678 24.5427 28.2687 24.5435 28.2699 24.5445C28.2721 24.5465 28.275 24.5491 28.2784 24.5522C28.2854 24.5583 28.2948 24.5666 28.3066 24.577C28.3302 24.5976 28.3632 24.6264 28.4049 24.6622C28.4882 24.7338 28.6064 24.8339 28.753 24.9539C29.0448 25.1928 29.4557 25.5164 29.9313 25.8531C30.7984 26.4671 32.178 27.345 33.5081 27.5797L34.1337 24.0345C33.6742 23.9534 32.8755 23.5267 32.0117 22.9151C31.6218 22.639 31.2791 22.3695 31.0337 22.1685C30.9116 22.0686 30.8154 21.9871 30.7513 21.932C30.7193 21.9045 30.6954 21.8837 30.6805 21.8706C30.673 21.864 30.6678 21.8594 30.665 21.8569C30.6635 21.8556 30.6627 21.8549 30.6625 21.8547C30.6623 21.8545 30.6624 21.8546 30.6625 21.8547C30.6626 21.8548 30.6628 21.8549 30.6629 21.8551C30.663 21.8552 30.6632 21.8553 30.6632 21.8553C30.6634 21.8555 30.6635 21.8556 29.4643 23.1979ZM37.5646 25.7624C38.1864 26.5148 38.2833 27.4128 37.8106 28.3287L41.0096 29.9798C42.1183 27.8318 41.9144 25.3748 40.3398 23.4693L37.5646 25.7624ZM37.8106 28.3287C37.2179 29.4771 36.6699 30.0685 36.0633 30.2713L37.2046 33.6856C39.2233 33.0108 40.3328 31.2912 41.0096 29.9798L37.8106 28.3287Z" fill="#27A9E1" mask="url(#path-11-inside-4_1152_4628)"/>
<mask id="path-13-inside-5_1152_4628" fill="white">
<path d="M12.1328 10.3473C12.1328 12.381 10.4661 14.0296 8.41006 14.0296C6.35404 14.0296 4.68732 12.381 4.68732 10.3473C4.68732 8.31365 8.41006 1 8.41006 1C8.41006 1 12.1328 8.31365 12.1328 10.3473Z"/>
</mask>
<path d="M8.41006 1L9.74684 0.319559L8.41006 -2.30668L7.07327 0.319559L8.41006 1ZM10.6328 10.3473C10.6328 11.5371 9.65314 12.5296 8.41006 12.5296V15.5296C11.279 15.5296 13.6328 13.2248 13.6328 10.3473H10.6328ZM8.41006 12.5296C7.16697 12.5296 6.18732 11.5371 6.18732 10.3473H3.18732C3.18732 13.2248 5.54111 15.5296 8.41006 15.5296V12.5296ZM6.18732 10.3473C6.18732 10.1367 6.32263 9.53275 6.68069 8.53591C7.01141 7.61517 7.45965 6.54906 7.91816 5.52303C8.37485 4.50108 8.83278 3.53879 9.17724 2.83071C9.34923 2.47716 9.49238 2.18812 9.59222 1.98808C9.64212 1.88809 9.68117 1.81041 9.70756 1.7581C9.72075 1.73194 9.73077 1.71214 9.73739 1.69907C9.7407 1.69253 9.74316 1.68768 9.74475 1.68456C9.74554 1.683 9.74612 1.68187 9.74647 1.68118C9.74664 1.68084 9.74676 1.6806 9.74682 1.68048C9.74685 1.68042 9.74686 1.68041 9.74687 1.68038C9.74687 1.6804 9.74684 1.68044 8.41006 1C7.07327 0.319559 7.07322 0.31966 7.07315 0.319789C7.07311 0.319869 7.07303 0.320027 7.07295 0.320187C7.07279 0.320508 7.07257 0.32094 7.07229 0.321483C7.07174 0.322568 7.07096 0.324095 7.06996 0.326058C7.06797 0.329984 7.06509 0.335653 7.06136 0.343017C7.0539 0.357746 7.04301 0.379258 7.02894 0.407168C7.00079 0.462984 6.95986 0.544416 6.90797 0.648377C6.80422 0.856252 6.65653 1.15448 6.47951 1.51836C6.12596 2.24513 5.65321 3.23836 5.17921 4.29904C4.70704 5.35562 4.22459 6.49924 3.8573 7.52177C3.51735 8.46821 3.18732 9.54106 3.18732 10.3473H6.18732ZM8.41006 1C7.07327 1.68044 7.07325 1.6804 7.07324 1.68038C7.07325 1.68041 7.07326 1.68042 7.07329 1.68048C7.07335 1.6806 7.07347 1.68084 7.07365 1.68118C7.074 1.68187 7.07457 1.683 7.07536 1.68456C7.07695 1.68768 7.07941 1.69253 7.08272 1.69907C7.08934 1.71214 7.09936 1.73194 7.11255 1.7581C7.13894 1.81041 7.17799 1.88809 7.22789 1.98808C7.32773 2.18812 7.47088 2.47716 7.64287 2.83071C7.98733 3.53879 8.44526 4.50108 8.90195 5.52303C9.36046 6.54906 9.8087 7.61517 10.1394 8.53591C10.4975 9.53275 10.6328 10.1367 10.6328 10.3473H13.6328C13.6328 9.54106 13.3028 8.46821 12.9628 7.52177C12.5955 6.49924 12.1131 5.35562 11.6409 4.29904C11.1669 3.23836 10.6942 2.24513 10.3406 1.51836C10.1636 1.15448 10.0159 0.856252 9.91214 0.648377C9.86025 0.544416 9.81932 0.462984 9.79117 0.407168C9.7771 0.379258 9.76621 0.357746 9.75875 0.343017C9.75502 0.335653 9.75214 0.329984 9.75015 0.326058C9.74915 0.324095 9.74837 0.322568 9.74782 0.321483C9.74755 0.32094 9.74733 0.320508 9.74716 0.320187C9.74708 0.320027 9.747 0.319869 9.74696 0.319789C9.74689 0.31966 9.74684 0.319559 8.41006 1Z" fill="#27A9E1" mask="url(#path-13-inside-5_1152_4628)"/>
<mask id="path-15-inside-6_1152_4628" fill="white">
<path d="M9.80608 10.3878C9.80608 11.1141 9.18106 11.7029 8.41006 11.7029C7.63905 11.7029 7.01403 11.1141 7.01403 10.3878C7.01403 9.66146 8.41006 7.04944 8.41006 7.04944C8.41006 7.04944 9.80608 9.66146 9.80608 10.3878Z"/>
</mask>
<path d="M8.41006 7.04944L9.292 6.57807L8.41006 4.92794L7.52812 6.57807L8.41006 7.04944ZM8.80608 10.3878C8.80608 10.5064 8.68588 10.7029 8.41006 10.7029V12.7029C9.67624 12.7029 10.8061 11.7218 10.8061 10.3878H8.80608ZM8.41006 10.7029C8.13424 10.7029 8.01403 10.5064 8.01403 10.3878H6.01403C6.01403 11.7218 7.14387 12.7029 8.41006 12.7029V10.7029ZM8.01403 10.3878C8.01403 10.4303 8.00831 10.4114 8.03924 10.2972C8.06609 10.1981 8.10887 10.0689 8.16782 9.91263C8.28552 9.60058 8.4477 9.23254 8.61734 8.87102C8.78564 8.51234 8.95484 8.17368 9.08248 7.9238C9.14613 7.79919 9.19904 7.69745 9.23581 7.62727C9.25419 7.5922 9.26852 7.56505 9.27811 7.54694C9.28291 7.53788 9.28652 7.53108 9.28887 7.52668C9.29004 7.52448 9.29089 7.52288 9.29142 7.52189C9.29168 7.5214 9.29186 7.52106 9.29196 7.52088C9.292 7.52079 9.29203 7.52073 9.29204 7.52072C9.29204 7.52072 9.29203 7.52074 9.29203 7.52073C9.29202 7.52076 9.292 7.5208 8.41006 7.04944C7.52812 6.57807 7.52809 6.57813 7.52805 6.5782C7.52803 6.57824 7.52799 6.57832 7.52795 6.57839C7.52787 6.57854 7.52777 6.57873 7.52765 6.57895C7.52741 6.5794 7.52708 6.58001 7.52668 6.58078C7.52586 6.58231 7.52471 6.58447 7.52324 6.58723C7.5203 6.59276 7.51607 6.60071 7.51064 6.61096C7.49979 6.63146 7.48412 6.66115 7.46433 6.69891C7.42476 6.77442 7.36861 6.88241 7.30138 7.01403C7.16726 7.2766 6.98745 7.63634 6.80675 8.02145C6.62738 8.40372 6.44056 8.82487 6.29649 9.20685C6.22457 9.39755 6.15829 9.59162 6.1088 9.77435C6.06338 9.94203 6.01403 10.1637 6.01403 10.3878H8.01403ZM8.41006 7.04944C7.52812 7.5208 7.5281 7.52076 7.52808 7.52073C7.52808 7.52074 7.52807 7.52072 7.52808 7.52072C7.52808 7.52073 7.52811 7.52079 7.52816 7.52088C7.52826 7.52106 7.52844 7.5214 7.5287 7.52189C7.52922 7.52288 7.53008 7.52448 7.53125 7.52668C7.53359 7.53108 7.5372 7.53788 7.542 7.54694C7.55159 7.56505 7.56592 7.5922 7.5843 7.62727C7.62108 7.69745 7.67399 7.79919 7.73764 7.9238C7.86527 8.17368 8.03447 8.51234 8.20278 8.87102C8.37241 9.23254 8.5346 9.60058 8.65229 9.91263C8.71124 10.0689 8.75403 10.1981 8.78088 10.2972C8.81181 10.4114 8.80608 10.4303 8.80608 10.3878H10.8061C10.8061 10.1637 10.7567 9.94203 10.7113 9.77435C10.6618 9.59162 10.5955 9.39755 10.5236 9.20685C10.3796 8.82487 10.1927 8.40372 10.0134 8.02145C9.83266 7.63634 9.65286 7.2766 9.51874 7.01403C9.45151 6.88241 9.39535 6.77442 9.35579 6.69891C9.33599 6.66115 9.32033 6.63146 9.30947 6.61096C9.30404 6.60071 9.29982 6.59276 9.29688 6.58723C9.2954 6.58447 9.29426 6.58231 9.29344 6.58078C9.29303 6.58001 9.29271 6.5794 9.29246 6.57895C9.29234 6.57873 9.29224 6.57854 9.29217 6.57839C9.29213 6.57832 9.29209 6.57824 9.29207 6.5782C9.29203 6.57813 9.292 6.57807 8.41006 7.04944Z" fill="#27A9E1" mask="url(#path-15-inside-6_1152_4628)"/>
</svg>
