<svg width="49" height="47" viewBox="0 0 49 47" fill="none" xmlns="http://www.w3.org/2000/svg">
<path d="M6 43.55V40C6 39.4477 6.44771 39 7 39H42C42.5523 39 43 39.4477 43 40V43.55C43 44.1023 42.5523 44.55 42 44.55H7C6.44772 44.55 6 44.1023 6 43.55Z" stroke="#27A9E1" stroke-width="1.8" stroke-linecap="round" stroke-linejoin="round"/>
<path d="M6 6.55V3C6 2.44772 6.44771 2 7 2H42C42.5523 2 43 2.44771 43 3V6.55C43 7.10228 42.5523 7.55 42 7.55H7C6.44772 7.55 6 7.10229 6 6.55Z" stroke="#27A9E1" stroke-width="1.8" stroke-linecap="round" stroke-linejoin="round"/>
<path d="M8.77499 7.54999V38.075" stroke="#27A9E1" stroke-width="1.8" stroke-linecap="round" stroke-linejoin="round"/>
<path d="M40.225 7.54999V38.075" stroke="#27A9E1" stroke-width="1.8" stroke-linecap="round" stroke-linejoin="round"/>
<path d="M13.4 37.6125V27.9C13.4 21.7696 18.3696 16.8 24.5 16.8V16.8V16.8C30.6304 16.8 35.6 21.7696 35.6 27.9V38.075" stroke="#27A9E1" stroke-width="1.8" stroke-linecap="round" stroke-linejoin="round"/>
<path d="M20.93 38.075C20.0898 36.7389 18.5651 34.6976 19.0396 32.3965C19.3997 30.6504 20.0223 29.3645 21.5602 28.7222C22.5937 28.2906 23.7656 29.3903 24.3957 28.7222C24.8999 28.1878 24.6058 26.718 24.3957 26.05C25.0259 26.2727 26.0843 27.0852 26.9163 28.0542C28.3525 29.7269 29.0491 31.1128 29.1217 33.3986C29.1822 35.3003 28.3866 37.2956 27.8615 38.075" stroke="#27A9E1" stroke-width="1.8" stroke-linecap="round" stroke-linejoin="round"/>
<path d="M12.475 12.175H19.875" stroke="#27A9E1" stroke-width="1.8" stroke-linecap="round" stroke-linejoin="round"/>
<path d="M30.05 12.175H36.525" stroke="#27A9E1" stroke-width="1.8" stroke-linecap="round" stroke-linejoin="round"/>
</svg>
