<svg width="49" height="47" viewBox="0 0 49 47" fill="none" xmlns="http://www.w3.org/2000/svg">
<g clip-path="url(#clip0_1152_4627)">
<path d="M35.1286 26.3166L41.8746 37.7734C42.1829 38.2969 42.0058 38.9668 41.4791 39.2695L35.3818 42.775C34.8551 43.0778 34.1782 42.8988 33.87 42.3753L27.1239 30.9185C26.9468 30.6178 26.9238 30.2523 27.062 29.9337L27.7592 28.3252C27.8523 28.1104 28.0126 27.9312 28.2167 27.8139L30.0369 26.7675L31.8571 25.721C32.0611 25.6037 32.298 25.5546 32.533 25.5807L34.2928 25.7767C34.6413 25.8155 34.9515 26.0159 35.1286 26.3166Z" stroke="#27A9E1" stroke-width="1.8"/>
<path d="M20.075 13.4735L28.4512 27.6988M23.2634 11.6405L31.6396 25.8658" stroke="#27A9E1" stroke-width="1.8"/>
<path d="M13.0995 14.3103L17.085 12.019M11.2381 11.1491L15.2236 8.85782" stroke="#27A9E1" stroke-width="1.8" stroke-linejoin="round"/>
<path d="M16.3267 12.5431L16.6692 13.1247C17.2297 14.0765 18.4603 14.4018 19.4179 13.8513L23.9211 11.2624C24.8787 10.7119 25.2006 9.49395 24.6402 8.54213L22.0163 4.08605C21.4558 3.13423 20.2252 2.80892 19.2676 3.35944L14.7644 5.94836C13.8068 6.49889 13.4849 7.71678 14.0453 8.6686L14.3878 9.2502" stroke="#27A9E1" stroke-width="1.8"/>
<rect x="0.323589" y="-1.22411" width="7.37121" height="5.55547" rx="1.1" transform="matrix(-0.507398 -0.861712 0.866941 -0.49841 9.66783 18.7918)" stroke="#27A9E1" stroke-width="1.8"/>
<path d="M21.9873 3.28407C21.9873 3.28407 25.2701 1.15422 27.3362 1.34355C29.6255 1.55334 32.6828 3.94877 32.6828 3.94877C32.6828 3.94877 29.5091 2.81454 27.545 3.44656C26.1561 3.89347 23.4009 5.56186 23.4009 5.56186" stroke="#27A9E1" stroke-width="1.8" stroke-linecap="round" stroke-linejoin="round"/>
<path d="M28.7187 31.7762L31.1108 30.401" stroke="#27A9E1" stroke-width="1.8" stroke-linecap="round" stroke-linejoin="round"/>
<path d="M31.0452 35.7279L33.4373 34.3527" stroke="#27A9E1" stroke-width="1.8" stroke-linecap="round" stroke-linejoin="round"/>
<path d="M33.3719 39.6794L35.764 38.3041" stroke="#27A9E1" stroke-width="1.8" stroke-linecap="round" stroke-linejoin="round"/>
<rect x="17.2751" y="23.9831" width="10.9158" height="2.08662" rx="1.04331" transform="rotate(38.2577 17.2751 23.9831)" stroke="#27A9E1" stroke-width="1.4"/>
<path d="M17.3014 26.4434L10.0187 34.7453C8.58361 36.3813 8.74642 38.8709 10.3824 40.306V40.306C12.0529 41.7715 14.6041 41.5664 16.0192 39.8529L23.3369 30.9918" stroke="#27A9E1" stroke-width="1.8"/>
<path d="M17.7265 29.7591L12.3738 36.2317C11.9553 36.7378 12.0263 37.4873 12.5324 37.9058V37.9058C13.0384 38.3243 13.7879 38.2533 14.2064 37.7472L19.5591 31.2745" stroke="#27A9E1" stroke-width="1.3"/>
<path d="M33.9085 10.665L26.9085 18.5009M36.9155 13.3028L29.4085 22.0009M23.2088 29.0808L26.815 24.5009M19.8592 26.7363L24.2917 21.3942" stroke="#27A9E1" stroke-width="1.8"/>
<path d="M38.7075 3.55307L43.5074 7.7637C43.9641 8.16433 44.0095 8.85933 43.6089 9.31602L40.6868 12.6471C39.5577 13.9341 37.5991 14.0622 36.3121 12.9332L34.5191 11.3603C33.2321 10.2313 33.104 8.27267 34.2331 6.98562L37.1552 3.65458C37.5558 3.19789 38.2508 3.15244 38.7075 3.55307Z" stroke="#27A9E1" stroke-width="1.8"/>
</g>
<defs>
<clipPath id="clip0_1152_4627">
<rect width="49" height="46.2778" fill="white"/>
</clipPath>
</defs>
</svg>
